<?xml version="1.0" encoding="UTF-8"?>
<svg width="24px" height="24px" viewBox="0 0 24 24" version="1.1" xmlns="http://www.w3.org/2000/svg" xmlns:xlink="http://www.w3.org/1999/xlink">
    <title>Regular 1.5px/note</title>
    <g id="Regular-1.5px/note" stroke="none" stroke-width="1" fill="none" fill-rule="evenodd">
        <g id="Group" transform="translate(3.250000, 2.250000)" fill="#3F80F7">
            <path d="M1.5,2.75 L1.5,16.75 C1.5,17.4403553 2.0596441,18 2.75,18 L14.75,18 C15.4403563,18 16,17.4403553 16,16.75 L16,9.75 C16,9.33578682 16.3357868,9 16.75,9 C17.1642132,9 17.5,9.33578682 17.5,9.75 L17.5,16.75 C17.5,18.2687836 16.2687826,19.5 14.75,19.5 L2.75,19.5 C1.23121691,19.5 0,18.2687836 0,16.75 L0,2.75 C0,1.23121691 1.23121703,0 2.75,0 L8.75,0 C9.16421318,0 9.5,0.335786432 9.5,0.75 C9.5,1.16421357 9.16421318,1.5 8.75,1.5 L2.75,1.5 C2.05964398,1.5 1.5,2.0596441 1.5,2.75 Z" id="Rectangle-193-(Stroke)"></path>
            <path d="M16.5992384,1.87132478 C17.7708111,3.04289746 17.7708111,4.94239259 16.5992384,6.11396551 L9.05676556,13.6564379 C8.90376854,13.8094349 8.70527553,13.9086809 8.49108076,13.9392805 L5.19124937,14.4106846 C4.53128207,14.5049658 3.96559654,13.9392805 4.05987854,13.2793131 L4.53128201,9.97948265 C4.56188172,9.7652874 4.66112846,9.56679344 4.81412488,9.41379738 L12.3565969,1.87132496 C13.5281696,0.699752152 15.4276648,0.699751973 16.5992384,1.87132478 Z M11.4726834,4.87655878 L5.99263632,10.3566055 L5.63908291,12.83148 L8.11395693,12.4779263 L13.5940037,6.99787903 L11.4726834,4.87655878 Z M13.4172573,2.93198502 L12.5333433,3.81589842 L14.654664,5.93721914 L15.538578,5.05330515 C16.1243639,4.46751881 16.1243639,3.51777124 15.538578,2.9319849 C14.9527912,2.34619868 14.0030441,2.34619844 13.4172573,2.93198502 Z" id="Shape"></path>
        </g>
    </g>
</svg>